<svg width="65" height="65" viewBox="0 0 65 65" fill="none" xmlns="http://www.w3.org/2000/svg">
<circle cx="32.5" cy="32.5" r="32.5" fill="#D4AF37"/>
<path d="M11 48.05V43.35C11 42.1833 11.3 41.125 11.9 40.175C12.5 39.225 13.3333 38.5167 14.4 38.05C16.8333 36.9833 19.025 36.2167 20.975 35.75C22.925 35.2833 24.9333 35.05 27 35.05C29.0667 35.05 31.0667 35.2833 33 35.75C34.9333 36.2167 37.1167 36.9833 39.55 38.05C40.6167 38.5167 41.4583 39.225 42.075 40.175C42.6917 41.125 43 42.1833 43 43.35V48.05H11ZM46 48.05V43.35C46 41.25 45.4667 39.525 44.4 38.175C43.3333 36.825 41.9333 35.7333 40.2 34.9C42.5 35.1667 44.6667 35.5583 46.7 36.075C48.7333 36.5917 50.3833 37.1833 51.65 37.85C52.75 38.4833 53.6167 39.2667 54.25 40.2C54.8833 41.1333 55.2 42.1833 55.2 43.35V48.05H46ZM27 32C24.8 32 23 31.3 21.6 29.9C20.2 28.5 19.5 26.7 19.5 24.5C19.5 22.3 20.2 20.5 21.6 19.1C23 17.7 24.8 17 27 17C29.2 17 31 17.7 32.4 19.1C33.8 20.5 34.5 22.3 34.5 24.5C34.5 26.7 33.8 28.5 32.4 29.9C31 31.3 29.2 32 27 32V32ZM45 24.5C45 26.7 44.3 28.5 42.9 29.9C41.5 31.3 39.7 32 37.5 32C37.1333 32 36.725 31.975 36.275 31.925C35.825 31.875 35.4167 31.7833 35.05 31.65C35.85 30.8167 36.4583 29.7917 36.875 28.575C37.2917 27.3583 37.5 26 37.5 24.5C37.5 23 37.2917 21.675 36.875 20.525C36.4583 19.375 35.85 18.3167 35.05 17.35C35.4167 17.25 35.825 17.1667 36.275 17.1C36.725 17.0333 37.1333 17 37.5 17C39.7 17 41.5 17.7 42.9 19.1C44.3 20.5 45 22.3 45 24.5V24.5ZM14 45.05H40V43.35C40 42.8167 39.8417 42.3 39.525 41.8C39.2083 41.3 38.8167 40.95 38.35 40.75C35.95 39.6833 33.9333 38.9667 32.3 38.6C30.6667 38.2333 28.9 38.05 27 38.05C25.1 38.05 23.325 38.2333 21.675 38.6C20.025 38.9667 18 39.6833 15.6 40.75C15.1333 40.95 14.75 41.3 14.45 41.8C14.15 42.3 14 42.8167 14 43.35V45.05ZM27 29C28.3 29 29.375 28.575 30.225 27.725C31.075 26.875 31.5 25.8 31.5 24.5C31.5 23.2 31.075 22.125 30.225 21.275C29.375 20.425 28.3 20 27 20C25.7 20 24.625 20.425 23.775 21.275C22.925 22.125 22.5 23.2 22.5 24.5C22.5 25.8 22.925 26.875 23.775 27.725C24.625 28.575 25.7 29 27 29Z" fill="#606176"/>
</svg>
